<svg width="8" height="13" viewBox="0 0 8 13" fill="none" xmlns="http://www.w3.org/2000/svg">
<path d="M7.99979 6.49658C7.99979 6.21603 7.89715 5.98337 7.67818 5.76441L2.40928 0.61183C2.23137 0.433919 2.01924 0.351807 1.76606 0.351807C1.25286 0.351807 0.835449 0.755528 0.835449 1.26873C0.835449 1.52191 0.944933 1.75457 1.12969 1.93932L5.81011 6.48974L1.12969 11.0538C0.944933 11.2386 0.835449 11.4644 0.835449 11.7244C0.835449 12.2376 1.25286 12.6482 1.76606 12.6482C2.01924 12.6482 2.23137 12.5592 2.40928 12.3813L7.67818 7.22875C7.90399 7.00978 7.99979 6.77713 7.99979 6.49658Z" fill="#3C3C43" fill-opacity="0.3"/>
</svg>
